Note melody[] = {
{NOTE_CS7, 250}, {NOTE_A2, 250}, {NOTE_E6, 250}, {NOTE_A4, 250}, {NOTE_E2, 250}, {NOTE_B5, 250}, {NOTE_GS6, 250}, {NOTE_E4, 250}, {NOTE_A1, 250}, {NOTE_C5, 250}, {NOTE_G6, 250}, {NOTE_G1, 250}, {NOTE_A6, 250}, {NOTE_D5, 250}, {NOTE_E7, 250}, {NOTE_A5, 250}, {NOTE_A2, 250}, {NOTE_B6, 250}, {NOTE_E5, 250}, {NOTE_A6, 250}, {NOTE_D5, 250}, {NOTE_E2, 250}, {NOTE_E7, 250}, {NOTE_A5, 250}, {NOTE_G2, 250}, {NOTE_D2, 250}, {NOTE_D7, 250}, {NOTE_G5, 250}, {NOTE_B6, 250}, {NOTE_G4, 250}, {NOTE_D6, 250}, {NOTE_CS7, 250}, {NOTE_A2, 250}, {NOTE_A4, 250}, {NOTE_E6, 250}, {NOTE_GS6, 250}, {NOTE_E2, 250}, {NOTE_B5, 250}, {NOTE_E4, 250}, {NOTE_A1, 250}, {NOTE_G6, 250}, {NOTE_C5, 250}, {NOTE_G1, 250}, {NOTE_A6, 250}, {NOTE_D5, 250}, {NOTE_E7, 250}, {NOTE_A5, 250}, {NOTE_A2, 250}, {NOTE_B6, 250}, {NOTE_E5, 250}, {NOTE_A6, 250}, {NOTE_D5, 250}, {NOTE_E2, 250}, {NOTE_E7, 250}, {NOTE_A5, 250}, {NOTE_G2, 250}, {NOTE_D2, 250}, {NOTE_D7, 250}, {NOTE_G5, 250}, {NOTE_B6, 250}, {NOTE_G4, 250}, {NOTE_D6, 250}, {NOTE_A2, 250}, {NOTE_E6, 250}, {NOTE_CS7, 250}, {NOTE_A4, 250}, {NOTE_C5, 250}, {NOTE_G6, 250}, {NOTE_E2, 250}, {NOTE_E4, 250}, {NOTE_B6, 125}, {NOTE_G4, 250}, {NOTE_D6, 250}, {NOTE_E6, 250}, {NOTE_A4, 250}, {NOTE_A1, 250}, {NOTE_C5, 250}, {NOTE_G1, 250}, {NOTE_D5, 250}, {NOTE_E6, 250}, {NOTE_A4, 250}, {NOTE_G6, 250}, {NOTE_C5, 250}, {NOTE_A5, 250}, {NOTE_B6, 125}, {NOTE_G4, 250}, {NOTE_D6, 250}, {NOTE_A2, 250}, {NOTE_A4, 250}, {NOTE_E6, 250}, {NOTE_E5, 250}, {NOTE_A4, 250}, {NOTE_D5, 250}, {NOTE_E6, 250}, {NOTE_E2, 250}, {NOTE_G6, 250}, {NOTE_C5, 250}, {NOTE_G4, 250}, {NOTE_A5, 250}, {NOTE_D6, 250}, {NOTE_G2, 250}, {NOTE_E6, 250}, {NOTE_A4, 250}, {NOTE_D2, 250}, {NOTE_G5, 250}, {NOTE_G4, 250}, {NOTE_CS7, 250}, {NOTE_A2, 250}, {NOTE_A4, 250}, {NOTE_E6, 250}, {NOTE_C5, 250}, {NOTE_G6, 250}, {NOTE_E2, 250}, {NOTE_E4, 250}, {NOTE_G4, 250}, {NOTE_D6, 250}, {NOTE_E6, 250}, {NOTE_A4, 250}, {NOTE_A1, 250}, {NOTE_C5, 250}, {NOTE_G1, 250}, {NOTE_D5, 250}, {NOTE_E6, 250}, {NOTE_A4, 250}, {NOTE_G6, 250}, {NOTE_C5, 250}, {NOTE_A5, 250}, {NOTE_B6, 125}, {NOTE_G4, 250}, {NOTE_D6, 250}, {NOTE_A2, 250}, {NOTE_E6, 250}, {NOTE_A4, 250}, {NOTE_E5, 250}, {NOTE_A4, 250}, {NOTE_D5, 250}, {NOTE_E6, 250}, {NOTE_E2, 250}, {NOTE_G6, 250}, {NOTE_C5, 250}, {NOTE_A5, 250}, {NOTE_D6, 250}, {NOTE_G4, 250}, {NOTE_D4, 125}, {NOTE_G2, 250}, {NOTE_E6, 250}, {NOTE_A4, 250}, {NOTE_D2, 250}, {NOTE_G5, 250}, {NOTE_G4, 250}, {NOTE_CS7, 250}, {NOTE_A2, 250}, {NOTE_A4, 250}, {NOTE_E6, 250}, {NOTE_G6, 250}, {NOTE_C5, 250}, {NOTE_B6, 125}, {NOTE_E2, 250}, {NOTE_E4, 250}, {NOTE_D6, 250}, {NOTE_G4, 250}, {NOTE_A4, 250}, {NOTE_E6, 250}, {NOTE_A1, 250}, {NOTE_C5, 250}, {NOTE_G1, 250}, {NOTE_D5, 250}, {NOTE_E6, 250}, {NOTE_A4, 250}, {NOTE_G6, 250}, {NOTE_C5, 250}, {NOTE_G4, 250}, {NOTE_A5, 250}, {NOTE_D6, 250}, {NOTE_B6, 125}, {NOTE_E4, 125}, {NOTE_A2, 250}, {NOTE_E6, 250}, {NOTE_A4, 250}, {NOTE_E5, 250}, {NOTE_A6, 250}, {NOTE_D5, 250}, {NOTE_E2, 250}, {NOTE_E6, 250}, {NOTE_A4, 250}, {NOTE_A5, 250}, {NOTE_B6, 125}, {NOTE_G4, 250}, {NOTE_D6, 250}, {NOTE_G2, 250}, {NOTE_E6, 250}, {NOTE_A4, 250}, {NOTE_D2, 250}, {NOTE_C5, 250}, {NOTE_G5, 250}, {NOTE_G6, 250}, {NOTE_CS7, 250}, {NOTE_A2, 250}, {NOTE_A4, 375}, {NOTE_E6, 375}, {NOTE_GS6, 250}, {NOTE_E2, 250}, {NOTE_B5, 250}, {NOTE_E4, 250}, {NOTE_A1, 250}, {NOTE_G6, 250}, {NOTE_C5, 250}, {NOTE_G1, 250}, {NOTE_A6, 250}, {NOTE_D5, 250}, {NOTE_E7, 250}, {NOTE_A5, 250}, {NOTE_A2, 250}, {NOTE_B6, 250}, {NOTE_E5, 250}, {NOTE_A6, 250}, {NOTE_D5, 250}, {NOTE_E2, 250}, {NOTE_E7, 250}, {NOTE_A5, 250}, {NOTE_G2, 250}, {NOTE_D2, 250}, {NOTE_D7, 250}, {NOTE_G5, 250}, {NOTE_B6, 250}, {NOTE_G4, 250}, {NOTE_D6, 250}, {NOTE_A2, 250}, {NOTE_E6, 250}, {NOTE_CS7, 250}, {NOTE_A4, 250}, {NOTE_GS6, 250}, {NOTE_E2, 250}, {NOTE_B5, 250}, {NOTE_E4, 250}, {NOTE_A1, 250}, {NOTE_G6, 250}, {NOTE_C5, 250}, {NOTE_G1, 250}, {NOTE_D5, 250}, {NOTE_A6, 250}, {NOTE_E7, 250}, {NOTE_A5, 250}, {NOTE_A2, 250}, {NOTE_B6, 250}, {NOTE_E5, 250}, {NOTE_A6, 250}, {NOTE_D5, 250}, {NOTE_E2, 250}, {NOTE_E7, 250}, {NOTE_A5, 250}, {NOTE_G2, 250}, {NOTE_D2, 250}, {NOTE_D7, 250}, {NOTE_G5, 250}, {NOTE_G4, 250}, {NOTE_B6, 250}, {NOTE_D6, 250}, {NOTE_CS7, 250}, {NOTE_A2, 250}, {NOTE_A4, 250}, {NOTE_E6, 250}, {NOTE_C5, 250}, {NOTE_G6, 250}, {NOTE_E2, 250}, {NOTE_E4, 250}, {NOTE_D6, 250}, {NOTE_B6, 250}, {NOTE_G4, 250}, {NOTE_E6, 250}, {NOTE_A4, 250}, {NOTE_A1, 250}, {NOTE_C5, 250}, {NOTE_G1, 250}, {NOTE_D5, 250}, {NOTE_E6, 250}, {NOTE_A4, 250}, {NOTE_G6, 250}, {NOTE_C5, 250}, {NOTE_A5, 250}, {NOTE_B6, 125}, {NOTE_G4, 250}, {NOTE_D6, 250}, {NOTE_E4, 125}, {NOTE_A2, 250}, {NOTE_E6, 250}, {NOTE_A4, 250}, {NOTE_E5, 250}, {NOTE_A4, 250}, {NOTE_D5, 250}, {NOTE_E6, 250}, {NOTE_E2, 250}, {NOTE_G6, 250}, {NOTE_C5, 250}, {NOTE_B6, 125}, {NOTE_A5, 250}, {NOTE_D6, 250}, {NOTE_G4, 250}, {NOTE_D4, 125}, {NOTE_G2, 250}, {NOTE_E6, 250}, {NOTE_A4, 250}, {NOTE_D2, 250}, {NOTE_G5, 250}, {NOTE_G4, 250}, {NOTE_CS7, 250}, {NOTE_A2, 250}, {NOTE_A4, 250}, {NOTE_E6, 250}, {NOTE_G6, 250}, {NOTE_C5, 250}, {NOTE_B6, 125}, {NOTE_E2, 250}, {NOTE_D6, 250}, {NOTE_E4, 250}, {NOTE_G4, 250}, {NOTE_A4, 250}, {NOTE_E6, 250}, {NOTE_A1, 250}, {NOTE_C5, 250}, {NOTE_G1, 250}, {NOTE_A4, 250}, {NOTE_D5, 250}, {NOTE_E6, 250}, {NOTE_C5, 250}, {NOTE_G6, 250}, {NOTE_G4, 250}, {NOTE_A5, 250}, {NOTE_B6, 125}, {NOTE_D6, 250}, {NOTE_GS4, 125}, {NOTE_E4, 125}, {NOTE_A2, 250}, {NOTE_E6, 250}, {NOTE_A4, 250}, {NOTE_E5, 250}, {NOTE_D5, 250}, {NOTE_E6, 250}, {NOTE_A4, 250}, {NOTE_E2, 250}, {NOTE_G6, 250}, {NOTE_C5, 250}, {NOTE_A5, 250}, {NOTE_B6, 250}, {NOTE_G4, 250}, {NOTE_D6, 250}, {NOTE_G2, 250}, {NOTE_E6, 250}, {NOTE_A4, 250}, {NOTE_D2, 250}, {NOTE_G5, 250}, {NOTE_G4, 250}, {NOTE_A2, 250}, {NOTE_CS7, 250}, {NOTE_A4, 250}, {NOTE_E6, 250}, {NOTE_G6, 250}, {NOTE_C5, 250}, {NOTE_E2, 250}, {NOTE_E4, 250}, {NOTE_G4, 250}, {NOTE_D6, 250}, {NOTE_E6, 250}, {NOTE_A4, 250}, {NOTE_A1, 250}, {NOTE_C5, 250}, {NOTE_G1, 250}, {NOTE_A4, 250}, {NOTE_D5, 250}, {NOTE_E6, 250}, {NOTE_G6, 250}, {NOTE_C5, 250}, {NOTE_B6, 125}, {NOTE_A5, 250}, {NOTE_D6, 250}, {NOTE_G4, 250}, {NOTE_A2, 250}, {NOTE_E6, 250}, {NOTE_A4, 250}, {NOTE_E5, 250}, {NOTE_A6, 250}, {NOTE_D5, 250}, {NOTE_E2, 250}, {NOTE_A4, 250}, {NOTE_E6, 250}, {NOTE_A5, 250}, {NOTE_D6, 250}, {NOTE_G4, 250}, {NOTE_D4, 125}, {NOTE_G2, 250}, {NOTE_E6, 250}, {NOTE_A4, 250}, {NOTE_D2, 250}, {NOTE_G5, 250}, {NOTE_C5, 250}, {NOTE_G6, 250}, {NOTE_A2, 250}, {NOTE_E6, 375}, {NOTE_CS7, 250}, {NOTE_A4, 375}, {NOTE_AS3, 125}, {NOTE_GS6, 250}, {NOTE_E2, 250}, {NOTE_B5, 250}, {NOTE_E4, 250}, {NOTE_A1, 250}, {NOTE_G6, 250}, {NOTE_C5, 250}, {NOTE_G1, 250}, {NOTE_D5, 250}, {NOTE_A6, 250}, {NOTE_E7, 250}, {NOTE_A5, 250}, {NOTE_A2, 250}, {NOTE_B6, 250}, {NOTE_E5, 250}, {NOTE_A6, 250}, {NOTE_D5, 250}, {NOTE_E2, 250}, {NOTE_E7, 250}, {NOTE_A5, 250}, {NOTE_G2, 250}, {NOTE_D2, 250}, {NOTE_D7, 250}, {NOTE_G5, 250}, {NOTE_G4, 250}, {NOTE_B6, 250}, {NOTE_D6, 250}, {NOTE_CS7, 250}, {NOTE_A2, 250}, {NOTE_E6, 250}, {NOTE_A4, 250}, {NOTE_GS6, 250}, {NOTE_E2, 250}, {NOTE_E4, 250}, {NOTE_B5, 250}, {NOTE_A1, 250}, {NOTE_C5, 250}, {NOTE_G6, 250}, {NOTE_G1, 250}, {NOTE_A6, 250}, {NOTE_D5, 250}, {NOTE_E7, 250}, {NOTE_A5, 250}, {NOTE_A2, 250}, {NOTE_B6, 250}, {NOTE_E5, 250}, {NOTE_A6, 250}, {NOTE_D5, 250}, {NOTE_E2, 250}, {NOTE_E7, 250}, {NOTE_A5, 250}, {NOTE_G2, 250}, {NOTE_D2, 250}, {NOTE_D7, 250}, {NOTE_G5, 250}, {NOTE_D6, 250}, {NOTE_B6, 250}, {NOTE_G4, 250}, {NOTE_CS7, 250}, {NOTE_A2, 250}, {NOTE_A4, 250}, {NOTE_E6, 250}, {NOTE_G6, 250}, {NOTE_C5, 250}, {NOTE_E2, 250}, {NOTE_E4, 250}, {NOTE_D6, 250}, {NOTE_G4, 250}, {NOTE_A4, 250}, {NOTE_E6, 250}, {NOTE_A1, 250}, {NOTE_C5, 250}, {NOTE_G1, 250}, {NOTE_D5, 250}, {NOTE_E6, 250}, {NOTE_A4, 250}, {NOTE_G6, 250}, {NOTE_C5, 250}, {NOTE_G4, 250}, {NOTE_A5, 250}, {NOTE_D6, 250}, {NOTE_B6, 125}, {NOTE_E4, 125}, {NOTE_A2, 250}, {NOTE_E6, 250}, {NOTE_A4, 250}, {NOTE_E5, 250}, {NOTE_D5, 250}, {NOTE_E6, 250}, {NOTE_A4, 250}, {NOTE_E2, 250}, {NOTE_G6, 250}, {NOTE_C5, 250}, {NOTE_A5, 250}, {NOTE_G4, 250}, {NOTE_D6, 250}, {NOTE_D4, 125}, {NOTE_G2, 250}, {NOTE_E6, 250}, {NOTE_A4, 250}, {NOTE_D2, 250}, {NOTE_G5, 250}, {NOTE_G4, 250}, {NOTE_A2, 250}, {NOTE_CS7, 250}, {NOTE_A4, 250}, {NOTE_E6, 250}, {NOTE_G6, 250}, {NOTE_C5, 250}, {NOTE_E2, 250}, {NOTE_B6, 125}, {NOTE_E4, 250}, {NOTE_G4, 250}, {NOTE_D6, 250}, {NOTE_E6, 250}, {NOTE_A4, 250}, {NOTE_A1, 250}, {NOTE_C5, 250}, {NOTE_G1, 250}, {NOTE_A4, 250}, {NOTE_D5, 250}, {NOTE_E6, 250}, {NOTE_G6, 250}, {NOTE_C5, 250}, {NOTE_B6, 125}, {NOTE_G4, 250}, {NOTE_A5, 250}, {NOTE_D6, 250}, {NOTE_E4, 125}, {NOTE_A2, 250}, {NOTE_E6, 250}, {NOTE_A4, 250}, {NOTE_E5, 250}, {NOTE_D5, 250}, {NOTE_E6, 250}, {NOTE_A4, 250}, {NOTE_E2, 250}, {NOTE_G6, 250}, {NOTE_C5, 250}, {NOTE_B6, 125}, {NOTE_A5, 250}, {NOTE_G4, 250}, {NOTE_D6, 250}, {NOTE_D4, 125}, {NOTE_G2, 250}, {NOTE_E6, 250}, {NOTE_A4, 250}, {NOTE_D2, 250}, {NOTE_G5, 250}, {NOTE_G4, 250}, {NOTE_A2, 250}, {NOTE_E6, 250}, {NOTE_CS7, 250}, {NOTE_A4, 250}, {NOTE_C5, 250}, {NOTE_G6, 250}, {NOTE_E2, 250}, {NOTE_E4, 250}, {NOTE_B6, 125}, {NOTE_G4, 250}, {NOTE_D6, 250}, {NOTE_E6, 250}, {NOTE_A4, 250}, {NOTE_A1, 250}, {NOTE_C5, 250}, {NOTE_G1, 250}, {NOTE_D5, 250}, {NOTE_E6, 250}, {NOTE_A4, 250}, {NOTE_G6, 250}, {NOTE_C5, 250}, {NOTE_A5, 250}, {NOTE_B6, 125}, {NOTE_G4, 250}, {NOTE_D6, 250}, {NOTE_A2, 250}, {NOTE_A4, 250}, {NOTE_E6, 250}, {NOTE_E5, 250}, {NOTE_A6, 250}, {NOTE_D5, 250}, {NOTE_E2, 250}, {NOTE_A4, 250}, {NOTE_E6, 250}, {NOTE_G4, 250}, {NOTE_A5, 250}, {NOTE_D6, 250}, {NOTE_G2, 250}, {NOTE_A4, 250}, {NOTE_E6, 250}, {NOTE_D2, 250}, {NOTE_G5, 250}, {NOTE_G6, 250}, {NOTE_C5, 250}, {NOTE_E6, 250}, {NOTE_A4, 250}, {NOTE_A2, 250}, {NOTE_E2, 250}, {NOTE_A1, 250}, {NOTE_G1, 250}, {NOTE_A2, 250}, {NOTE_E2, 250}, {NOTE_G2, 250}, {NOTE_D2, 250}
};

int notes[] = {
    NOTE_E4, NOTE_G4, NOTE_A4, NOTE_A4, 0,
    NOTE_A4, NOTE_B4, NOTE_C5, NOTE_C5, 0,
    NOTE_C5, NOTE_D5, NOTE_B4, NOTE_B4, 0,
    NOTE_A4, NOTE_G4, NOTE_A4, 0,

    NOTE_E4, NOTE_G4, NOTE_A4, NOTE_A4, 0,
    NOTE_A4, NOTE_B4, NOTE_C5, NOTE_C5, 0,
    NOTE_C5, NOTE_D5, NOTE_B4, NOTE_B4, 0,
    NOTE_A4, NOTE_G4, NOTE_A4, 0,

    NOTE_E4, NOTE_G4, NOTE_A4, NOTE_A4, 0,
    NOTE_A4, NOTE_C5, NOTE_D5, NOTE_D5, 0,
    NOTE_D5, NOTE_E5, NOTE_F5, NOTE_F5, 0,
    NOTE_E5, NOTE_D5, NOTE_E5, NOTE_A4, 0,

    NOTE_A4, NOTE_B4, NOTE_C5, NOTE_C5, 0,
    NOTE_D5, NOTE_E5, NOTE_A4, 0,
    NOTE_A4, NOTE_C5, NOTE_B4, NOTE_B4, 0,
    NOTE_C5, NOTE_A4, NOTE_B4, 0,

    NOTE_A4, NOTE_A4,
    //Repeat of first part
    NOTE_A4, NOTE_B4, NOTE_C5, NOTE_C5, 0,
    NOTE_C5, NOTE_D5, NOTE_B4, NOTE_B4, 0,
    NOTE_A4, NOTE_G4, NOTE_A4, 0,

    NOTE_E4, NOTE_G4, NOTE_A4, NOTE_A4, 0,
    NOTE_A4, NOTE_B4, NOTE_C5, NOTE_C5, 0,
    NOTE_C5, NOTE_D5, NOTE_B4, NOTE_B4, 0,
    NOTE_A4, NOTE_G4, NOTE_A4, 0,

    NOTE_E4, NOTE_G4, NOTE_A4, NOTE_A4, 0,
    NOTE_A4, NOTE_C5, NOTE_D5, NOTE_D5, 0,
    NOTE_D5, NOTE_E5, NOTE_F5, NOTE_F5, 0,
    NOTE_E5, NOTE_D5, NOTE_E5, NOTE_A4, 0,

    NOTE_A4, NOTE_B4, NOTE_C5, NOTE_C5, 0,
    NOTE_D5, NOTE_E5, NOTE_A4, 0,
    NOTE_A4, NOTE_C5, NOTE_B4, NOTE_B4, 0,
    NOTE_C5, NOTE_A4, NOTE_B4, 0,
    //End of Repeat

    NOTE_E5, 0, 0, NOTE_F5, 0, 0,
    NOTE_E5, NOTE_E5, 0, NOTE_G5, 0, NOTE_E5, NOTE_D5, 0, 0,
    NOTE_D5, 0, 0, NOTE_C5, 0, 0,
    NOTE_B4, NOTE_C5, 0, NOTE_B4, 0, NOTE_A4,

    NOTE_E5, 0, 0, NOTE_F5, 0, 0,
    NOTE_E5, NOTE_E5, 0, NOTE_G5, 0, NOTE_E5, NOTE_D5, 0, 0,
    NOTE_D5, 0, 0, NOTE_C5, 0, 0,
    NOTE_B4, NOTE_C5, 0, NOTE_B4, 0, NOTE_A4};

// Durations (in ms) of each music note of the song
// Quarter Note is 250 ms when songSpeed = 1.0
int durations[] = {
    125, 125, 250, 125, 125,
    125, 125, 250, 125, 125,
    125, 125, 250, 125, 125,
    125, 125, 375, 125,

    125, 125, 250, 125, 125,
    125, 125, 250, 125, 125,
    125, 125, 250, 125, 125,
    125, 125, 375, 125,

    125, 125, 250, 125, 125,
    125, 125, 250, 125, 125,
    125, 125, 250, 125, 125,
    125, 125, 125, 250, 125,

    125, 125, 250, 125, 125,
    250, 125, 250, 125,
    125, 125, 250, 125, 125,
    125, 125, 375, 375,

    250, 125,
    //Rpeat of First Part
    125, 125, 250, 125, 125,
    125, 125, 250, 125, 125,
    125, 125, 375, 125,

    125, 125, 250, 125, 125,
    125, 125, 250, 125, 125,
    125, 125, 250, 125, 125,
    125, 125, 375, 125,

    125, 125, 250, 125, 125,
    125, 125, 250, 125, 125,
    125, 125, 250, 125, 125,
    125, 125, 125, 250, 125,

    125, 125, 250, 125, 125,
    250, 125, 250, 125,
    125, 125, 250, 125, 125,
    125, 125, 375, 375,
    //End of Repeat

    250, 125, 375, 250, 125, 375,
    125, 125, 125, 125, 125, 125, 125, 125, 375,
    250, 125, 375, 250, 125, 375,
    125, 125, 125, 125, 125, 500,

    250, 125, 375, 250, 125, 375,
    125, 125, 125, 125, 125, 125, 125, 125, 375,
    250, 125, 375, 250, 125, 375,
    125, 125, 125, 125, 125, 500};